<svg width="18" height="14" viewBox="0 0 18 14" fill="none" xmlns="http://www.w3.org/2000/svg">
<path d="M17.7499 7C17.7501 7.08211 17.734 7.16344 17.7026 7.23929C17.6711 7.31514 17.625 7.384 17.5667 7.44188L11.3167 13.6919C11.1989 13.8057 11.041 13.8687 10.8771 13.8673C10.7132 13.8659 10.5565 13.8001 10.4406 13.6843C10.3247 13.5684 10.259 13.4116 10.2576 13.2478C10.2561 13.0839 10.3191 12.926 10.433 12.8081L16.2411 7L10.433 1.19187C10.3191 1.074 10.2561 0.916122 10.2576 0.752249C10.259 0.588376 10.3247 0.431619 10.4406 0.315738C10.5565 0.199858 10.7132 0.134128 10.8771 0.132704C11.041 0.13128 11.1989 0.194276 11.3167 0.308125L17.5667 6.55813C17.625 6.616 17.6711 6.68486 17.7026 6.76071C17.734 6.83656 17.7501 6.91789 17.7499 7ZM14.6249 7C14.6251 6.91789 14.609 6.83656 14.5776 6.76071C14.5461 6.68486 14.5 6.616 14.4417 6.55813L8.19174 0.308125C8.07456 0.190907 7.91561 0.125035 7.74987 0.125H0.874867C0.751273 0.125026 0.630461 0.161696 0.527705 0.230374C0.424949 0.299052 0.344862 0.396653 0.297568 0.510841C0.250274 0.625028 0.237897 0.750674 0.262002 0.871895C0.286107 0.993115 0.345611 1.10447 0.432992 1.19187L6.24112 7L0.432992 12.8081C0.345611 12.8955 0.286107 13.0069 0.262002 13.1281C0.237897 13.2493 0.250274 13.375 0.297568 13.4892C0.344862 13.6033 0.424949 13.7009 0.527705 13.7696C0.630461 13.8383 0.751273 13.875 0.874867 13.875H7.74987C7.91561 13.875 8.07456 13.8091 8.19174 13.6919L14.4417 7.44188C14.5 7.384 14.5461 7.31514 14.5776 7.23929C14.609 7.16344 14.6251 7.08211 14.6249 7Z" fill="url(#paint0_linear_0_6905)"/>
<defs>
<linearGradient id="paint0_linear_0_6905" x1="0.252751" y1="6.99805" x2="17.75" y2="6.99805" gradientUnits="userSpaceOnUse">
<stop stop-color="#F15B2A"/>
<stop offset="1" stop-color="#F69321"/>
</linearGradient>
</defs>
</svg>
